<?xml version="1.0" ?><!DOCTYPE svg  PUBLIC '-//W3C//DTD SVG 1.1//EN'  'http://www.w3.org/Graphics/SVG/1.1/DTD/svg11.dtd'><svg height="144px" style="shape-rendering:geometricPrecision; text-rendering:geometricPrecision; image-rendering:optimizeQuality; fill-rule:evenodd; clip-rule:evenodd" version="1.1" viewBox="0 0 22556 18119" width="180px" xml:space="preserve" xmlns="http://www.w3.org/2000/svg" xmlns:xlink="http://www.w3.org/1999/xlink"><defs><style type="text/css">
   <![CDATA[
    .fil1 {fill:#83CF8F}
    .fil0 {fill:#FF7069}
    .fil2 {fill:white;fill-rule:nonzero}
   ]]>
  </style></defs><g id="Layer_x0020_1"><g id="_456306832"><path class="fil0" d="M1066 0l15928 0c587,0 1066,267 1066,594l0 5946c0,327 -479,595 -1066,595l-12676 0 -4318 2442 1015 -2443c-563,-15 -1015,-276 -1015,-594l0 -5946c0,-327 479,-594 1066,-594z"/><path class="fil1" d="M21490 8542l-15929 0c-586,0 -1066,267 -1066,594l0 5946c0,327 480,595 1066,595l12677 0 4318 2442 -1016 -2443c563,-15 1016,-276 1016,-594l0 -5946c0,-327 -480,-594 -1066,-594z"/><path class="fil2" d="M8904 12286l733 0 0 1757 656 0 0 -4100 -656 0 0 1757 -733 0 0 -1757 -644 0 0 4100 644 0 0 -1757zm2501 -1757l1113 0 0 -586 -1757 0 0 4100 1757 0 0 -586 -1113 0 0 -1200 885 0 0 -586 -885 0 0 -1142zm1511 3514l1705 0 0 -586 -1060 0 0 -3514 -645 0 0 4100zm1986 0l1704 0 0 -586 -1060 0 0 -3514 -644 0 0 4100zm2577 -3157c0,-293 129,-404 334,-404 205,0 334,111 334,404l0 2214c0,293 -129,404 -334,404 -205,0 -334,-111 -334,-404l0 -2214zm-644 2173c0,656 345,1031 978,1031 632,0 978,-375 978,-1031l0 -2132c0,-656 -346,-1030 -978,-1030 -633,0 -978,374 -978,1030l0 2132z"/><path class="fil2" d="M10693 4342l-158 -2222 0 -929 639 0 0 929 -147 2222 -334 0zm-3162 -788l732 0 0 1757 656 0 0 -4100 -656 0 0 1757 -732 0 0 -1757 -645 0 0 4100 645 0 0 -1757zm1856 1757l644 0 0 -4100 -644 0 0 4100zm1172 73l0 -586 591 0 0 586 -591 0z"/></g></g></svg>