<?xml version="1.0" ?><!DOCTYPE svg  PUBLIC '-//W3C//DTD SVG 1.1//EN'  'http://www.w3.org/Graphics/SVG/1.1/DTD/svg11.dtd'><svg enable-background="new 0 0 90 90" height="90px" id="Layer_1" version="1.1" viewBox="0 0 90 90" width="90px" xml:space="preserve" xmlns="http://www.w3.org/2000/svg" xmlns:xlink="http://www.w3.org/1999/xlink"><circle cx="45" cy="45" fill="#82DD47" r="45"/><polygon fill="#36D7B7" points="74,65 16,65 45,15 "/><path d="M74.02,66c-0.006-0.001-0.013,0-0.02,0H16c-0.357,0-0.688-0.191-0.867-0.501  c-0.178-0.31-0.178-0.691,0.001-1.001l29-50c0.358-0.616,1.372-0.616,1.73,0l28.912,49.849C74.928,64.522,75.02,64.75,75.02,65  C75.02,65.552,74.572,66,74.02,66z M17.736,64h54.528L45,16.993L17.736,64z" fill="#153F38"/><path clip-rule="evenodd" d="M45.191,57c8.492,0,12.685-8,13.81-10c-1.375-2-5.159-10-13.81-10  s-12.44,8.125-13.809,10C32.75,49.125,36.698,57,45.191,57z" fill="#FFFFFF" fill-rule="evenodd"/><path d="M45.19,58c-8.302,0-12.461-6.86-14.238-9.79c-0.158-0.26-0.295-0.486-0.413-0.669  c-0.224-0.348-0.21-0.797,0.033-1.131c0.168-0.23,0.375-0.562,0.625-0.962C32.969,42.621,37.115,36,45.19,36  c8.212,0,12.329,6.704,14.086,9.567c0.216,0.351,0.396,0.647,0.548,0.867c0.216,0.314,0.234,0.724,0.047,1.057l-0.112,0.201  C55.941,54.532,51.04,58,45.19,58z M32.57,47.021c0.03,0.049,0.061,0.1,0.092,0.152C34.264,49.815,38.015,56,45.19,56  c7.313,0,11.199-6.401,12.643-8.963c-0.082-0.131-0.169-0.272-0.261-0.423C55.855,43.817,52.284,38,45.19,38  c-6.968,0-10.567,5.747-12.297,8.509C32.778,46.694,32.67,46.866,32.57,47.021z" fill="#3F291E"/><circle cx="45.191" cy="47" fill="#81D4EF" r="4.286"/><path d="M45.19,52.286c-2.915,0-5.286-2.372-5.286-5.286c0-0.825,0.185-1.615,0.55-2.35  c0.246-0.495,0.845-0.698,1.341-0.45c0.494,0.246,0.696,0.846,0.45,1.341c-0.227,0.456-0.341,0.946-0.341,1.459  c0,1.812,1.474,3.286,3.286,3.286s3.286-1.474,3.286-3.286c0-1.812-1.474-3.286-3.286-3.286c-0.552,0-1-0.448-1-1s0.448-1,1-1  c2.915,0,5.286,2.371,5.286,5.286S48.105,52.286,45.19,52.286z" fill="#232E38"/></svg>