<?xml version="1.0" ?><!DOCTYPE svg  PUBLIC '-//W3C//DTD SVG 1.1//EN'  'http://www.w3.org/Graphics/SVG/1.1/DTD/svg11.dtd'><svg enable-background="new 0 0 151 151" id="Layer_1" version="1.1" viewBox="0 0 151 151" xml:space="preserve" xmlns="http://www.w3.org/2000/svg" xmlns:xlink="http://www.w3.org/1999/xlink"><g><circle cx="75.5" cy="75.5" fill="#71D456" r="75.1"/><g><polygon fill="#FCFCFD" points="95.5,18.5 31.4,18.5 31.4,132.5 119.6,132.5 119.6,42.5   "/><polygon fill="#F1F3F7" points="95.5,42.5 119.6,42.5 95.5,18.5   "/><g><path d="M59.5,65.1H41.8V47.4h17.7V65.1z M45,61.9h11.3V50.6H45V61.9z" fill="#6EB1E1"/></g><g><rect fill="#F1F3F7" height="4.2" width="42.4" x="66.8" y="48.8"/><rect fill="#F1F3F7" height="4.2" width="31.1" x="66.8" y="59.5"/></g><g><path d="M59.5,94.2H41.8V76.5h17.7V94.2z M45,91h11.3V79.7H45V91z" fill="#6EB1E1"/></g><g><rect fill="#F1F3F7" height="4.2" width="42.4" x="66.8" y="77.9"/><rect fill="#F1F3F7" height="4.2" width="31.1" x="66.8" y="88.6"/></g><g><path d="M59.5,123.3H41.8v-17.7h17.7V123.3z M45,120.1h11.3v-11.3H45V120.1z" fill="#6EB1E1"/></g><g><rect fill="#F1F3F7" height="4.2" width="42.4" x="66.8" y="106.9"/><rect fill="#F1F3F7" height="4.2" width="31.1" x="66.8" y="117.6"/></g><polygon fill="#F0582F" points="45.7,53.6 50.9,60.9 62.3,48 50.8,57.9   "/></g></g></svg>