<?xml version="1.0" ?><svg enable-background="new 0 0 64 64" version="1.1" viewBox="0 0 64 64" xml:space="preserve" xmlns="http://www.w3.org/2000/svg" xmlns:xlink="http://www.w3.org/1999/xlink"><g id="Single_Out_copy"><g><g><path d="M59.185,49.6V12.8c0-0.88-0.72-1.6-1.6-1.6H6.396c-0.88,0-1.6,0.72-1.6,1.6v36.8C4.796,49.6,59.318,49.6,59.185,49.6z"/></g><g><rect fill="#25B6D2" height="36.267" width="49.589" x="7.196" y="13.333"/></g><g><g><rect fill="#D8D8D8" height="1.067" width="64" x="0" y="49.6"/></g><g><polygon fill="#BCBCBC" points="60.8,52.8 3.2,52.8 0,50.667 64,50.667     "/></g><g opacity="0.7"><path d="M37.38,49.6H26.62c0.102,0.599,0.603,1.067,1.229,1.067h8.301C36.777,50.667,37.278,50.199,37.38,49.6z" fill="#FFFFFF"/></g></g></g><g><g><path d="M14.532,36.165l1.108,4.258c0.241,0.934,0.466,1.799,0.623,2.665h0.052     c0.19-0.849,0.466-1.749,0.743-2.648l1.367-4.275h1.28l1.298,4.188c0.312,1.003,0.554,1.886,0.745,2.735h0.052     c0.138-0.849,0.363-1.732,0.64-2.717l1.193-4.205h1.507l-2.7,8.376h-1.385l-1.28-3.998c-0.295-0.935-0.537-1.765-0.745-2.752     h-0.035c-0.208,1.004-0.466,1.87-0.761,2.77l-1.35,3.98H15.5l-2.526-8.376H14.532z" fill="#FFFFFF"/></g><g><path d="M27.474,36.165l1.108,4.258c0.241,0.934,0.466,1.799,0.623,2.665h0.052     c0.19-0.849,0.466-1.749,0.743-2.648l1.367-4.275h1.28l1.298,4.188c0.312,1.003,0.554,1.886,0.745,2.735h0.052     c0.138-0.849,0.363-1.732,0.64-2.717l1.193-4.205h1.507l-2.7,8.376h-1.385l-1.28-3.998c-0.295-0.935-0.537-1.765-0.745-2.752     h-0.035c-0.208,1.004-0.466,1.87-0.761,2.77l-1.35,3.98h-1.385l-2.526-8.376H27.474z" fill="#FFFFFF"/></g><g><path d="M40.417,36.165l1.108,4.258c0.241,0.934,0.466,1.799,0.623,2.665h0.052     c0.19-0.849,0.466-1.749,0.743-2.648l1.367-4.275h1.28l1.298,4.188c0.312,1.003,0.554,1.886,0.745,2.735h0.052     c0.138-0.849,0.363-1.732,0.64-2.717l1.193-4.205h1.507l-2.7,8.376h-1.385l-1.28-3.998c-0.295-0.935-0.537-1.765-0.745-2.752     h-0.035c-0.208,1.004-0.466,1.87-0.761,2.77l-1.35,3.98h-1.385l-2.526-8.376H40.417z" fill="#FFFFFF"/></g></g><g><g><path d="M32,31.097l-1.247-1.647c-0.917-1.2-8.947-11.919-8.947-17.259c0-6.407,3.999-10.547,10.194-10.547     s10.194,4.14,10.194,10.547c0,5.332-8.03,16.052-8.939,17.259L32,31.097z" fill="#E04F5F"/></g><g><circle cx="31.992" cy="12.261" fill="#FFFFFF" r="3.301"/></g></g></g></svg>