<?xml version="1.0" ?><svg viewBox="0 0 512 512" xmlns="http://www.w3.org/2000/svg"><defs><style>.cls-1{fill:#91642e;}.cls-2{fill:#bd7630;}.cls-3{fill:#d3c198;}.cls-4{fill:#ee497d;}.cls-5{fill:#512e19;}.cls-6{fill:#f79b23;}.cls-7{fill:#fbc444;}.cls-8{fill:#fab317;}.cls-9{fill:#cf1d5f;}.cls-10{fill:#6e371b;}.cls-11{fill:#5eaca8;}.cls-12{fill:#55666f;}</style></defs><title/><g data-name="katman 12" id="katman_12"><polygon class="cls-1" points="347.62 348.01 401.08 446.9 192.85 446.9 192.85 355.71 347.62 348.01"/><polygon class="cls-2" points="378.46 298.57 347.62 348.01 340.3 360.15 301.27 396.15 227.98 396.15 188.51 357.98 216.7 300.74 294.76 259.69 322.09 212.7 349.84 201.42 378.46 298.57"/><polygon class="cls-3" points="256.17 314.18 314.28 314.18 301.27 400.05 256.17 400.05 228.84 400.05 215.4 314.18 256.17 314.18"/><polygon class="cls-4" points="264.84 335 226.24 323.29 249.23 363.19 264.84 363.19 280.45 363.19 303.44 323.29 264.84 335"/><path class="cls-2" d="M189.38,295.53,188.51,358S165.09,326.76,166,307.68Z"/><polygon class="cls-5" points="327.35 234.62 344.2 259.69 309.51 255.2 327.35 234.62"/><path class="cls-6" d="M344.94,184.09s86.43-61.74,44.8,159.15L334.23,192.32Z"/><path class="cls-7" d="M256.17,110.78s48.57-25.15,84.13,6.07c-2.13-4.58,36.82,72.23-46,163.93,0,0-80.66,20.82-105.82,77.2l.87-62.45s-26.6,32.67-25.44,67.65c0,0-17.64-9-23.71-55.51a19.77,19.77,0,0,0-4.34,12.14s-8.1-9.83-8.1-61.87L91.37,277l24-47.13S112.76,75.8,256.17,110.78Z"/><path class="cls-8" d="M344.94,184.09s60.41,43.79,71.69,71.11c0,0,.87-82-76.33-138.34Z"/><polygon class="cls-9" points="303.44 323.29 280.89 341.29 284.76 355.71 303.44 323.29"/><polygon class="cls-9" points="226.24 323.29 248.79 341.29 244.92 355.71 226.24 323.29"/><path class="cls-10" d="M287,400.05a66.61,66.61,0,0,1-40.82,13.69A17.42,17.42,0,0,1,235,409.67c-2.71-2.29-5.48-5.55-6.12-9.62Z"/><polygon class="cls-11" points="358.35 131.73 424.44 119.46 454.5 101.21 466.65 121.19 449.3 144.9 392.31 174.1 358.35 131.73"/><polygon class="cls-12" points="454.5 101.21 510.01 65.1 466.65 121.19 454.5 101.21"/><polygon class="cls-11" points="153.65 131.73 87.56 119.46 57.5 101.21 45.35 121.19 62.7 144.9 125.33 176.99 153.65 131.73"/><polygon class="cls-12" points="57.5 101.21 1.99 65.1 45.35 121.19 57.5 101.21"/></g></svg>